<?xml version="1.0" encoding="UTF-8"?>
<!-- Generator: Adobe Illustrator 22.0.1, SVG Export Plug-In . SVG Version: 6.00 Build 0)  -->
<svg version="1.1" id="Capa_1" xmlns="http://www.w3.org/2000/svg" xmlns:xlink="http://www.w3.org/1999/xlink" x="0px" y="0px" viewBox="0 0 1000 1000" style="enable-background:new 0 0 1000 1000;" xml:space="preserve">
<style type="text/css">
	.st0{fill:#102E4A}
	.st1{clip-path:url(#SVGID_2_);fill:#838C90;}
	.st2{clip-path:url(#SVGID_2_);fill:none;stroke:#102E4A;stroke-width:60;stroke-miterlimit:10;}
	.st3{fill:#333A42;}
	.st4{fill:#A6A5A1;}
	.st5{fill:none;stroke:#000000;stroke-width:5;stroke-miterlimit:10;}
	.st6{fill:#00949C;}
	.st7{fill:#102E4A;}
	.st8{fill:none;stroke:#A6A5A1;stroke-width:14;stroke-miterlimit:10;}
	.st9{fill:#193441;}
	.st10{fill:#656971;}
	.st11{fill:#233341;}
	.st12{fill:#838C90;}
	.st13{fill:#F2F2F2;}
	.st14{clip-path:url(#SVGID_4_);fill:#838C90;}
	.st15{clip-path:url(#SVGID_4_);fill:none;stroke:#102E4Astroke-width:60;stroke-miterlimit:10;}
	.st16{clip-path:url(#SVGID_6_);fill:#838C90;}
	.st17{clip-path:url(#SVGID_6_);fill:none;stroke:#102E4A;stroke-width:60;stroke-miterlimit:10;}
	.st18{clip-path:url(#SVGID_8_);fill:#838C90;}
	.st19{clip-path:url(#SVGID_8_);fill:none;stroke:#102E4Astroke-width:60;stroke-miterlimit:10;}
	.st20{clip-path:url(#SVGID_10_);fill:#838C90;}
	.st21{clip-path:url(#SVGID_10_);fill:none;stroke:#102E4Astroke-width:60;stroke-miterlimit:10;}
	.st22{clip-path:url(#SVGID_12_);fill:#838C90;}
	.st23{clip-path:url(#SVGID_12_);fill:none;stroke:#102E4A;stroke-width:60;stroke-miterlimit:10;}
</style>
<g>
	<g>
		<path class="st0" d="M715,853.5c-44.3,20.7-97.6,34.7-148.2,34.7c-233.5,0-382.5-164.7-382.5-339.6c0-147,108.6-240.2,230.8-242.9    h0c8.2,0,11.5,10.4,4.9,15.2c-24.3,17.6-45,39.8-61.1,65.3c-17.5,24.8-30.5,57.1-34.2,99.6c-0.4,3.8-0.6,7.6-0.8,11.5v0.7    c-0.2,3.2-0.2,6.6-0.3,9.9v3.8c0,97.2,50.7,179.6,145.6,213.7c4.9,1.8,10.9,4.6,14.7,5.8c43.6,13.2,81.4,21.9,110.7,35.3l0,0    c0,0,0,0,0,0c0,0,0.1,0,0.1,0.1c0.1,0,0.2,0.1,0.3,0.1c8.8,4.1,17,8.2,24.5,12.3c0,0,0.1,0.1,0.1,0.1    C645.8,793.7,674.7,813.2,715,853.5z"/>
		<path class="st0" d="M933.6,533.6c-4.2,70.8-31.1,139.7-73.5,197.7c-50.9-4.6-103.6-60.3-79.6-162.5l1.6-7.5    c0.7-2.8,1.4-5.5,1.8-8.4c0.4-1.4,0.6-2.8,0.7-4.2c0.9-4.8,1.6-9.6,2.1-14.4c13.6-139.1-95.7-256.5-232-256.5H192    c-80.9,0-146.5-65.6-146.5-146.5h509.2C771.6,131.3,946.6,314,933.6,533.6z"/>
	</g>
	<path class="st7" d="M784.8,548.6l-0.9,4.3c0.4-1.4,0.6-2.8,0.7-4.2L784.8,548.6z"/>
	<path class="st12" d="M932.2,852.6c-29.6,30.3-69.3,45.6-108.9,45.6c-37.1,0-74.4-13.4-103.5-40.3l-4.8-4.5l-26.8-24.7l-0.7-0.7   c-0.2-0.3-0.5-0.6-0.9-0.9l-12.9-11.8l-0.6-0.5l-75.6-69.9l-3.9-3.6l-13.9-12.7l-3.9-3.6h-0.1l-55.8-50.9   c28.5-26.1,64.8-39.1,101.1-39.1c35.9,0,71.9,12.8,100.1,38.3L932.2,852.6z"/>
</g>
</svg>